# xmcd CD database file
#
# Track frame offsets:
#	150
#	9508
#	22658
#	33662
#	42980
#	54255
#	64266
#	75061
#	84755
#	96648
#	108156
#	121210
#	132623
#	143361
#	155912
#	169022
#	178374
#	188811
#	200136
#	210256
#	221264
#	233147
#	243410
#	255467
#	268109
#	277459
#	289383
#	300109
#	312759
#	322194
#	331790
#	342894
#	352330
#	362172
#	374573
#	385469
#	395816
#
# Disc length: 5392 seconds
#
# Revision: 0
# Processed by: cddbd v1.5.2PL0 Copyright (c) Steve Scherf et al.
# Submitted via: CDex 1.95
#
DISCID=38150e25
DTITLE=Faron Young - Hello Wall 1-15 and This Is Faron Young 16-37
DYEAR=1963
DGENRE=Country
TTITLE0=01 - Hello Walls
TTITLE1=02 - It's Four In The Morning
TTITLE2=03 - Memphis
TTITLE3=04 - Heartache For A Keepsake
TTITLE4=05 - Live Fast, Love Hard, Die Young
TTITLE5=06 - Live Fast, Love Hard, Die Young
TTITLE6=07 - Alone With You
TTITLE7=08 - Face To The Wall
TTITLE8=09 - Some Of Your Memories
TTITLE9=10 - Unmitigated Gall
TTITLE10=11 - Goin' Steady
TTITLE11=12 - Three Days
TTITLE12=13 - Cryin' Time
TTITLE13=14 - I Could Never Be Ashamed Of You
TTITLE14=15 - Apartment #9
TTITLE15=16 - A World So Full Of Love
TTITLE16=17 - Anything Your Heart Desires
TTITLE17=18 - Believing It Yourself
TTITLE18=19 - Big Shoes
TTITLE19=20 - Congratulations
TTITLE20=21 - For The Love Of A Woman Like You
TTITLE21=22 - Forget The Past
TTITLE22=23 - Goin' Steady
TTITLE23=24 - Have I Waited Too Long
TTITLE24=25 - I Made A Fool Of Myself
TTITLE25=26 - If That's The Fashion
TTITLE26=27 - If You Ain't Lovin'(You Ain't Livin')
TTITLE27=28 - Is She All You Thought She'd Be
TTITLE28=29 - It's A Great Life (If You Don't Weaken)
TTITLE29=30 - I've Five Dollars % It's Saturday Night
TTITLE30=31 - Just Married
TTITLE31=32 - Let Old Mother Nature Have Her Way
TTITLE32=33 - Out Of My Heart
TTITLE33=34 - Sweet Dreams
TTITLE34=35 - Tattletale Tears
TTITLE35=36 - That's What It's Like To Be Lonesome
TTITLE36=37 - Ther's Not Any Like You Left
EXTD=YEAR: 1963
EXTT0=
EXTT1=
EXTT2=
EXTT3=
EXTT4=
EXTT5=
EXTT6=
EXTT7=
EXTT8=
EXTT9=
EXTT10=
EXTT11=
EXTT12=
EXTT13=
EXTT14=
EXTT15=
EXTT16=
EXTT17=
EXTT18=
EXTT19=
EXTT20=
EXTT21=
EXTT22=
EXTT23=
EXTT24=
EXTT25=
EXTT26=
EXTT27=
EXTT28=
EXTT29=
EXTT30=
EXTT31=
EXTT32=
EXTT33=
EXTT34=
EXTT35=
EXTT36=
PLAYORDER=
